<?xml version="1.0"?>
<svg xmlns="http://www.w3.org/2000/svg" xmlns:xlink="http://www.w3.org/1999/xlink" xmlns:svgjs="http://svgjs.com/svgjs" version="1.1" width="512" height="512" x="0" y="0" viewBox="0 0 512 512" style="enable-background:new 0 0 512 512" xml:space="preserve" class=""><g><g xmlns="http://www.w3.org/2000/svg" id="Corona_Virus_Symptoms_Fever" data-name="Corona Virus Symptoms Fever"><g id="Glyph"><circle cx="16" cy="448" r="8" fill="#ffffff" data-original="#000000" style="" class=""/><circle cx="48" cy="464" r="8" fill="#ffffff" data-original="#000000" style="" class=""/><circle cx="128" cy="464" r="8" fill="#ffffff" data-original="#000000" style="" class=""/><circle cx="88" cy="472" r="8" fill="#ffffff" data-original="#000000" style="" class=""/><circle cx="160" cy="448" r="8" fill="#ffffff" data-original="#000000" style="" class=""/><path d="M144,292.116V72a24.027,24.027,0,0,0-24-24H56A24.027,24.027,0,0,0,32,72v8H72a8,8,0,0,1,0,16H32v16H88a8,8,0,0,1,0,16H32v16H72a8,8,0,0,1,0,16H32V292.122a87.845,87.845,0,0,0-6.536,129.629C80.382,477.379,176,438.821,176,360A87.254,87.254,0,0,0,144,292.116ZM88,416A55.992,55.992,0,0,1,64,309.416V176h48V309.416A55.992,55.992,0,0,1,88,416Z" fill="#ffffff" data-original="#000000" style="" class=""/><path d="M501.968,64.079c-9.146-19.7-23.886-31.627-41.858-34.031-45.511-85.46-234.173,43.687-260.774-3.1-3.361-7.228-14.51-5.426-15.116,3.051-2.6,36.459,7.885,85.5,39.78,108.135v49.692c-23.021,30.98-26.985,31.455-25.872,37.6,1.082,5.975,5.8,5.8,25.872,19.045V276a36.04,36.04,0,0,0,36,36h52v29.054c-1.936,2.325-5.145,6.315-9.121,11.744,65.7-5.922,117.885-32.028,137.121-42.872V297.305c32.816-42.378,55.594-87.887,65.918-131.775C515.274,125.756,513.871,89.727,501.968,64.079ZM304,200a32.036,32.036,0,0,1-32-32c0-14.607,20.846-52.474,25.024-59.917a8,8,0,0,1,13.952,0C315.154,115.526,336,153.393,336,168A32.036,32.036,0,0,1,304,200Z" fill="#ffffff" data-original="#000000" style="" class=""/><path d="M441,331.2C426.6,352,312,376,290.054,371.746c-20.13,32.141-44.317,83.2-41.884,140.254H336V440.85c0-30.731,24.4-56.375,55.131-56.843A56.062,56.062,0,0,1,448,440v72h47.811L496,483.243C496.889,434.936,480,376,441,331.2Z" fill="#ffffff" data-original="#000000" style="" class=""/></g></g></g></svg>
